<?xml version="1.0" standalone="no"?>
<!DOCTYPE svg PUBLIC "-//W3C//DTD SVG 20010904//EN"
 "http://www.w3.org/TR/2001/REC-SVG-20010904/DTD/svg10.dtd">
<svg version="1.0" xmlns="http://www.w3.org/2000/svg"
 width="380.000000pt" height="380.000000pt" viewBox="0 0 380.000000 380.000000"
 preserveAspectRatio="xMidYMid meet">
<metadata>
Created by potrace 1.11, written by Peter Selinger 2001-2013
</metadata>
<g transform="translate(0.000000,380.000000) scale(0.100000,-0.100000)"
fill="#000000" stroke="none">
<path d="M2263 2063 c-14 -3 -23 -12 -23 -23 0 -10 -4 -22 -10 -25 -17 -11
-11 -53 13 -80 45 -53 157 -38 157 21 0 13 -3 24 -8 24 -4 0 -13 13 -20 28 -9
22 -74 68 -85 61 -1 -1 -12 -4 -24 -6z"/>
<path d="M1495 1961 c-46 -13 -75 -48 -75 -89 0 -25 54 -79 85 -85 30 -5 70
35 78 77 4 24 -2 36 -32 66 -26 26 -42 35 -56 31z"/>
<path d="M1318 1713 c7 -3 16 -2 19 1 4 3 -2 6 -13 5 -11 0 -14 -3 -6 -6z"/>
<path d="M1340 1675 c0 -8 9 -15 20 -15 11 0 20 7 20 15 0 8 -9 15 -20 15 -11
0 -20 -7 -20 -15z"/>
<path d="M2532 1615 c-19 -8 -48 -15 -65 -16 -18 -1 -50 -6 -72 -11 -22 -6
-69 -12 -105 -14 -36 -2 -103 -6 -150 -9 -47 -3 -116 -7 -155 -9 -38 -3 -99
-9 -135 -16 -75 -12 -208 -13 -263 0 -40 9 -65 5 -112 -15 -16 -7 -75 -16
-129 -20 -84 -5 -102 -10 -116 -28 -24 -29 -15 -53 27 -72 44 -21 298 -31 388
-16 33 6 89 13 125 15 36 2 72 6 80 10 20 8 140 23 285 36 66 6 134 15 151 21
17 5 50 9 75 9 24 0 62 7 84 15 22 8 60 14 85 15 88 1 149 37 150 88 0 22 -4
23 -45 21 -24 -2 -47 0 -51 4 -10 9 -13 9 -52 -8z"/>
</g>
</svg>
